<svg width="94" height="90" viewBox="0 0 94 90" fill="none" xmlns="http://www.w3.org/2000/svg">
<g clip-path="url(#clip0_80_7494)">
<path d="M77.4138 35.3195L59.7118 22.3668C59.4201 22.152 59.0478 22.0784 58.6963 22.1661L37.4309 27.56C36.7799 27.7259 36.3867 28.388 36.5526 29.0388C36.6221 29.3117 36.7843 29.5521 37.0113 29.7187L42.6422 33.8295L41.426 39.9956C40.7631 43.4374 46.2908 48.8861 53.74 50.3333C55.0466 50.5855 56.3742 50.7118 57.7048 50.7104C59.7448 50.7231 61.7735 50.4069 63.7129 49.7739C66.6926 48.7828 68.681 47.1286 69.0277 45.3591L70.244 39.2111L77 37.5024C77.6509 37.3365 78.0441 36.6744 77.8782 36.0235C77.8087 35.7507 77.6465 35.5103 77.4196 35.3437L77.4138 35.3195ZM66.6563 44.891C66.5164 45.6025 65.1969 46.7153 62.9529 47.4633C60.1195 48.3502 57.1089 48.5134 54.1962 47.9376C47.3551 46.6058 43.5362 41.9782 43.8585 40.458L44.8376 35.4169L54.7132 42.6654C54.9212 42.8187 55.1724 42.9017 55.4308 42.9026C55.5337 42.9033 55.6361 42.8889 55.7348 42.8601L67.6293 39.85L66.6563 44.891ZM55.7105 40.3667L40.5383 29.2748L58.7388 24.6654L73.8927 35.7511L55.7105 40.3667Z" fill="#807AF9"/>
<path d="M29.8113 50.9416C29.4391 51.1564 29.2079 51.5517 29.2031 51.9815V73.6786C29.2079 74.1083 29.4391 74.5035 29.8113 74.7185C29.9941 74.8316 30.2044 74.8925 30.4194 74.8948C30.6159 74.8966 30.81 74.8507 30.9849 74.761L51.7212 63.9063C52.3157 63.5935 52.544 62.8581 52.2313 62.2638C52.1167 62.0461 51.9388 61.8683 51.7212 61.7537L31.0031 50.8991C30.6258 50.7041 30.174 50.7202 29.8113 50.9416ZM31.6357 53.9821L48.5348 62.83L31.654 71.6717L31.6357 53.9821Z" fill="#5751E1"/>
<path d="M74.2638 81.6814H68.0186C68.1268 81.3412 68.1821 80.9863 68.1828 80.6294V52.4924C68.1828 51.8207 67.6382 51.2761 66.9665 51.2761C66.2948 51.2761 65.7503 51.8207 65.7503 52.4924V80.6293C65.7402 81.2203 65.253 81.6913 64.662 81.6812C64.6618 81.6812 64.6622 81.6812 64.662 81.6812H10.8933C10.3023 81.6914 9.81493 81.2206 9.80477 80.6296C9.80477 80.6294 9.80477 80.6297 9.80477 80.6296V43.8146C9.81478 43.2236 10.302 42.7526 10.893 42.7627H37.7775C38.4492 42.7627 38.9938 42.2181 38.9938 41.5464C38.9938 40.8747 38.4492 40.3301 37.7775 40.3301H10.8933C8.9602 40.3234 7.38573 41.8815 7.37238 43.8145V80.6291C7.3731 80.9862 7.4284 81.3409 7.53653 81.6811H1.29146C0.619759 81.6811 0.0751953 82.2257 0.0751953 82.8974V83.2014C0.0751953 85.9379 2.22791 88.9784 5.11633 88.9784H70.4388C73.3273 88.9784 75.48 85.9379 75.48 83.2014V82.8974C75.48 82.226 74.9354 81.6814 74.2638 81.6814ZM70.4388 86.5462H5.11633C4.06436 86.5462 2.9941 85.4273 2.63531 84.1138H72.9199C72.5611 85.4273 71.4908 86.5462 70.4388 86.5462Z" fill="white"/>
<path d="M94 13.5533C93.4937 13.9302 93.2405 14.3071 92.9873 14.4328C91.7215 14.9354 90.4557 15.4379 89.1899 15.9405C87.2911 16.5687 86.1519 17.8252 85.8987 19.8355C85.6456 21.4689 85.3924 23.1023 85.0127 24.7357C84.8861 25.2382 84.5063 25.9921 84.1266 26.1178C83.3671 26.2434 83.3671 25.3639 83.2405 24.8613C82.7342 23.3536 82.2278 21.7202 81.8481 20.2124C81.2152 18.0765 79.8228 16.9457 77.5443 16.9457C76.6582 16.9457 75.8987 16.82 75.0127 16.6944C74.5063 16.6944 74.2532 16.4431 74 16.1918C74.2532 15.9405 74.3797 15.5636 74.6329 15.4379C75.8987 14.9354 77.2911 14.4328 78.557 14.0558C79.8228 13.6789 80.7089 12.7994 80.962 11.5429C81.4684 9.53261 81.8481 7.52229 82.3544 5.63762C82.6076 5.00939 82.3544 4.12988 83.2405 4.12988C84.1266 4.12988 84 4.88375 84.1266 5.38633C84.5063 7.14536 84.8861 8.77874 85.3924 10.5378C86.0253 12.7994 86.5316 13.1763 88.9367 13.1763C90.2025 13.1763 91.5949 13.0507 92.8608 13.0507C92.9873 13.0507 93.3671 13.302 94 13.5533Z" fill="#434087"/>
<path d="M77 4.84156C76.7468 5.03003 76.6203 5.2185 76.4937 5.28132C75.8608 5.53261 75.2278 5.7839 74.5949 6.03519C73.6456 6.3493 73.0759 6.97753 72.9494 7.98269C72.8228 8.79938 72.6962 9.61607 72.5063 10.4328C72.443 10.6841 72.2532 11.061 72.0633 11.1238C71.6835 11.1867 71.6835 10.7469 71.6203 10.4956C71.3671 9.74172 71.1139 8.92502 70.9241 8.17115C70.6076 7.10317 69.9114 6.53777 68.7722 6.53777C68.3291 6.53777 67.9494 6.47495 67.5063 6.41213C67.2532 6.41213 67.1266 6.28648 67 6.16084C67.1266 6.03519 67.1899 5.84672 67.3165 5.7839C67.9494 5.53261 68.6456 5.28132 69.2785 5.09285C69.9114 4.90439 70.3544 4.46463 70.481 3.8364C70.7342 2.83125 70.9241 1.82609 71.1772 0.883752C71.3038 0.56964 71.1772 0.129883 71.6203 0.129883C72.0633 0.129883 72 0.506818 72.0633 0.758108C72.2532 1.63762 72.443 2.45431 72.6962 3.33383C73.0127 4.46463 73.2658 4.6531 74.4684 4.6531C75.1013 4.6531 75.7975 4.59027 76.4304 4.59027C76.4937 4.59027 76.6835 4.71592 77 4.84156Z" fill="#6663A9"/>
</g>
<defs>
<clipPath id="clip0_80_7494">
<rect width="94" height="89" fill="white" transform="translate(0 0.129883)"/>
</clipPath>
</defs>
</svg>
