<svg width="94" height="94" viewBox="0 0 94 94" fill="none" xmlns="http://www.w3.org/2000/svg">
<g clip-path="url(#clip0_80_7472)">
<path d="M20.9844 45.1844C20.303 45.1844 19.75 44.6313 19.75 43.9499V39.4791C19.75 39.0915 19.9302 38.7285 20.2388 38.4965C21.4979 37.5436 22.2188 36.1117 22.2188 34.5687V30.8656C22.2188 28.1426 20.0043 25.9281 17.2812 25.9281C14.5582 25.9281 12.3438 28.1426 12.3438 30.8656V34.5687C12.3438 36.1117 13.0646 37.5436 14.3237 38.4965C14.6323 38.7285 14.8125 39.094 14.8125 39.4816V43.9525C14.8125 44.6338 14.2595 45.1868 13.5781 45.1868C12.8968 45.1868 12.3438 44.6313 12.3438 43.9499V40.0617C10.7662 38.6521 9.875 36.682 9.875 34.5687V30.8656C9.875 26.7823 13.1979 23.4594 17.2812 23.4594C21.3646 23.4594 24.6875 26.7823 24.6875 30.8656V34.5687C24.6875 36.682 23.7963 38.6496 22.2188 40.0617V43.9499C22.2188 44.6313 21.6658 45.1844 20.9844 45.1844Z" fill="white"/>
<path d="M18.523 41.8516C17.9503 41.8516 17.4368 41.4491 17.3158 40.8665C17.18 40.1975 17.6096 39.5457 18.2786 39.41C20.5597 38.9384 22.2188 36.9042 22.2188 34.5687C22.2188 33.8874 22.7717 33.3344 23.4531 33.3344C24.1345 33.3344 24.6875 33.8874 24.6875 34.5687C24.6875 38.0694 22.199 41.1208 18.7724 41.8244C18.6884 41.8417 18.607 41.8516 18.523 41.8516Z" fill="white"/>
<path d="M25.6108 47.1198C25.4479 47.1198 25.2825 47.0877 25.1245 47.0185L20.498 45.0312C19.871 44.7621 19.5821 44.0363 19.8512 43.4092C20.1178 42.7797 20.8437 42.4958 21.4707 42.7624L26.0972 44.7498C26.7242 45.0189 27.0131 45.7447 26.744 46.3717C26.544 46.8408 26.0873 47.1198 25.6108 47.1198Z" fill="white"/>
<path d="M9.875 62.0632C9.70466 62.0632 9.52938 62.0286 9.36397 61.9521L4.63878 59.8043C3.32047 59.2019 2.46875 57.8787 2.46875 56.432V53.0103C2.46875 49.5491 4.51781 46.4385 7.68769 45.0856L13.0868 42.7428C13.7188 42.4712 14.4397 42.7576 14.7113 43.3822C14.9804 44.0068 14.694 44.7351 14.0694 45.0066L8.66531 47.3519C6.399 48.3221 4.9375 50.5416 4.9375 53.0103V56.432C4.9375 56.9134 5.22141 57.3578 5.66084 57.5577L10.386 59.7055C11.0057 59.987 11.2797 60.7202 10.9983 61.3399C10.7909 61.7941 10.3416 62.0632 9.875 62.0632Z" fill="white"/>
<path d="M22.0682 33.1122C19.6093 33.1122 17.259 32.2654 15.2717 30.6632C14.7434 30.2361 14.6594 29.4608 15.0841 28.93C15.5161 28.3993 16.2938 28.3179 16.8196 28.745C18.4045 30.0213 20.2857 30.7101 22.2138 30.6434C22.0953 28.0216 19.9277 25.9281 17.2812 25.9281C14.5582 25.9281 12.3438 28.1426 12.3438 30.8656V31.7791C12.3438 32.4604 11.7907 33.0133 11.1094 33.0133C10.428 33.0133 9.875 32.4629 9.875 31.7791V30.8656C9.875 26.7823 13.1979 23.4594 17.2812 23.4594C21.3646 23.4594 24.6875 26.7823 24.6875 30.8656V31.7297C24.6875 32.337 24.2456 32.853 23.6482 32.9492C23.0779 33.0406 22.5841 33.1122 22.0682 33.1122Z" fill="white"/>
<path d="M65.4219 45.1844C64.7405 45.1844 64.1875 44.6314 64.1875 43.95V39.4791C64.1875 39.0915 64.3677 38.7286 64.6763 38.4965C65.9354 37.5436 66.6562 36.1117 66.6562 34.5687V30.8656C66.6562 28.1426 64.4418 25.9281 61.7188 25.9281C58.9957 25.9281 56.7812 28.1426 56.7812 30.8656V34.5687C56.7812 36.1117 57.5021 37.5436 58.7612 38.4965C59.0698 38.7286 59.25 39.094 59.25 39.4816V43.9525C59.25 44.6338 58.697 45.1868 58.0156 45.1868C57.3343 45.1868 56.7812 44.6338 56.7812 43.9525V40.0642C55.2037 38.6545 54.3125 36.6845 54.3125 34.5712V30.8681C54.3125 26.7848 57.6354 23.4618 61.7188 23.4618C65.8021 23.4618 69.125 26.7848 69.125 30.8681V34.5712C69.125 36.6845 68.2338 38.6521 66.6562 40.0642V43.9525C66.6562 44.6314 66.1032 45.1844 65.4219 45.1844Z" fill="white"/>
<path d="M62.9605 41.8516C62.3878 41.8516 61.8743 41.4491 61.7533 40.8665C61.6175 40.1975 62.0471 39.5457 62.7161 39.41C64.9972 38.9384 66.6562 36.9042 66.6562 34.5687C66.6562 33.8874 67.2093 33.3344 67.8906 33.3344C68.572 33.3344 69.125 33.8874 69.125 34.5687C69.125 38.0694 66.6365 41.1208 63.2099 41.8244C63.1259 41.8417 63.0445 41.8516 62.9605 41.8516Z" fill="white"/>
<path d="M53.7521 46.9643C53.2756 46.9643 52.8189 46.6854 52.6189 46.2163C52.3498 45.5917 52.6387 44.8634 53.2658 44.5943L57.5293 42.7625C58.1514 42.4984 58.8797 42.7798 59.1488 43.4093C59.4179 44.0339 59.129 44.7622 58.502 45.0313L54.2384 46.8631C54.0804 46.9322 53.9175 46.9643 53.7521 46.9643Z" fill="white"/>
<path d="M69.125 62.0632C68.6584 62.0632 68.2091 61.7941 68.0017 61.3399C67.7203 60.7202 67.9943 59.987 68.614 59.7055L73.3392 57.5577C73.7786 57.3578 74.0625 56.9159 74.0625 56.432V53.0103C74.0625 50.5416 72.601 48.3221 70.3421 47.3569L64.9306 45.0066C64.306 44.7351 64.0196 44.0092 64.2887 43.3822C64.5603 42.7551 65.2762 42.4687 65.9132 42.7428L71.3173 45.0881C74.4822 46.4385 76.5312 49.5491 76.5312 53.0103V56.432C76.5312 57.8787 75.6795 59.2019 74.3612 59.8043L69.636 61.9521C69.4706 62.0262 69.2953 62.0632 69.125 62.0632Z" fill="white"/>
<path d="M42.7341 29.4238C39.2235 29.4238 35.5698 28.1869 33.5553 26.3749C33.0467 25.9181 33.0047 25.138 33.4614 24.6319C33.9182 24.1258 34.7057 24.0839 35.2044 24.5406C37.6386 26.7279 43.4697 27.8709 46.81 26.0786C47.4099 25.7552 48.1604 25.9799 48.4813 26.5822C48.8047 27.1846 48.5776 27.9302 47.9777 28.2536C46.4545 29.0658 44.6152 29.4238 42.7341 29.4238Z" fill="white"/>
<path d="M39.4827 51.85C35.3871 51.85 33.2516 48.6554 32.6937 46.9643C32.4789 46.3151 32.8319 45.6189 33.4787 45.4041C34.1255 45.1918 34.8192 45.5423 35.034 46.1842C35.0859 46.3323 36.1795 49.3788 39.4827 49.3788C42.8131 49.3788 43.9857 46.2385 44.0376 46.1052C44.2672 45.4658 44.9831 45.1325 45.6126 45.3596C46.252 45.5868 46.5903 46.2854 46.3656 46.9273C46.294 47.1297 44.5881 51.85 39.4827 51.85Z" fill="white"/>
<path d="M62.9531 61.725C62.2718 61.725 61.7188 61.172 61.7188 60.4906V59.8018C61.7188 56.1407 59.4105 52.8671 55.9764 51.6599L45.6793 48.0061C44.198 47.4902 43.2031 46.0879 43.2031 44.5203V41.4837C43.2031 40.8023 43.7561 40.2493 44.4375 40.2493C45.1189 40.2493 45.6719 40.8023 45.6719 41.4837V44.5203C45.6719 45.0387 46.0052 45.5028 46.4989 45.6756L56.7985 49.3319C61.2176 50.8847 64.1875 55.0939 64.1875 59.8018V60.4931C64.1875 61.1745 63.6345 61.725 62.9531 61.725Z" fill="white"/>
<path d="M16.0469 61.7249C15.3655 61.7249 14.8125 61.1719 14.8125 60.4905V59.8239C14.8125 59.0537 14.894 58.281 15.0544 57.5181C15.8494 53.7582 18.5996 50.6229 22.2237 49.3293L32.4986 45.7249C32.9948 45.5521 33.3281 45.0855 33.3281 44.5671V41.4811C33.3281 40.7998 33.8811 40.2468 34.5625 40.2468C35.2439 40.2468 35.7969 40.7998 35.7969 41.4811V44.5671C35.7969 46.1323 34.802 47.5345 33.3158 48.0554L23.0483 51.6573C20.2265 52.6621 18.0885 55.1037 17.4689 58.0292C17.343 58.6217 17.2812 59.2265 17.2812 59.8239V60.4905C17.2812 61.1744 16.7282 61.7249 16.0469 61.7249Z" fill="white"/>
<path d="M39.5 44.4437C38.8186 44.4437 38.2656 43.8907 38.2656 43.2094C38.2656 42.528 38.8186 41.975 39.5 41.975C42.0626 41.975 46.9062 39.6544 46.9062 30.8656V27.1625C46.9062 23.0792 43.5833 19.7562 39.5 19.7562C35.4167 19.7562 32.0938 23.0792 32.0938 27.1625V30.8656C32.0938 35.1217 33.2318 38.378 35.3821 40.2814C35.8932 40.7332 35.9425 41.5133 35.4883 42.0244C35.0316 42.5379 34.2539 42.5798 33.7478 42.1305C31.8666 40.4666 29.625 37.1634 29.625 30.8656V27.1625C29.625 21.7164 34.0539 17.2875 39.5 17.2875C44.9461 17.2875 49.375 21.7164 49.375 27.1625V30.8656C49.375 41.6071 42.9167 44.4437 39.5 44.4437Z" fill="white"/>
<path d="M58.307 83.9438C57.8528 83.9438 57.4183 83.6919 57.201 83.2575C56.8998 82.6451 57.1492 81.907 57.7614 81.6034L63.8666 78.5792C64.2098 78.4088 64.6196 78.4088 64.9603 78.5792L68.9498 80.5565L68.3005 76.1523C68.2462 75.7721 68.3696 75.3845 68.6412 75.1105L71.7592 71.9234L67.3649 71.1754C66.9871 71.1111 66.6588 70.8716 66.4786 70.531L64.4147 66.5859L62.3484 70.531C62.1681 70.8716 61.8398 71.1111 61.4621 71.1754L57.0702 71.9234L60.1857 75.1105C60.6622 75.5993 60.6523 76.3794 60.166 76.8559C59.6772 77.3348 58.8946 77.3249 58.4206 76.8361L53.6584 71.9654C53.3374 71.637 53.2239 71.1581 53.367 70.7211C53.5102 70.2842 53.8805 69.9631 54.3348 69.8866L60.4474 68.8448L63.3235 63.3543C63.5383 62.9469 63.9604 62.6927 64.4172 62.6927C64.8788 62.6927 65.296 62.9494 65.5108 63.3543L68.3844 68.8448L74.4995 69.8866C74.9538 69.9631 75.3241 70.2866 75.4673 70.7211C75.6105 71.1556 75.4969 71.637 75.176 71.9654L70.8384 76.3967L71.7419 82.5291C71.8061 82.9833 71.616 83.4376 71.2457 83.7067C70.8754 83.9782 70.3817 84.0202 69.9719 83.8128L64.4172 81.0602L58.86 83.8128C58.6798 83.9042 58.4922 83.9438 58.307 83.9438Z" fill="#807AF9"/>
<path d="M32.2815 90.6612C32.0247 90.6612 31.7704 90.5822 31.5556 90.4267C31.1853 90.1576 30.9928 89.7034 31.0594 89.2466L32.1407 81.8823L26.9366 76.5597C26.6157 76.2314 26.5021 75.7524 26.6453 75.3155C26.7885 74.8785 27.1588 74.5551 27.613 74.481L34.9551 73.2318L38.4064 66.6378C38.836 65.8231 40.1666 65.8231 40.5962 66.6378L44.0475 73.2318L51.3896 74.481C51.8438 74.5576 52.2141 74.881 52.3573 75.3155C52.5005 75.75 52.3869 76.2314 52.066 76.5597L46.8594 81.8823L47.9432 89.2466C48.0074 89.7009 47.8173 90.1551 47.447 90.4242C47.0767 90.6983 46.5829 90.7353 46.1731 90.5304L39.5001 87.2247L32.8295 90.5304C32.6567 90.6168 32.4691 90.6612 32.2815 90.6612ZM30.3484 76.5178L34.333 80.5937C34.6021 80.8702 34.728 81.2553 34.6737 81.6355L33.8442 87.2716L38.952 84.7412C39.2952 84.5683 39.705 84.5683 40.0457 84.7412L45.151 87.2716L44.3215 81.6355C44.2672 81.2553 44.3907 80.8677 44.6622 80.5937L48.6493 76.5178L43.0279 75.5599C42.6502 75.4957 42.3219 75.2562 42.1416 74.9155L39.5001 69.8669L36.8585 74.9155C36.6783 75.2562 36.3499 75.4957 35.9722 75.5599L30.3484 76.5178Z" fill="#5751E1"/>
<path d="M20.8931 83.9438C20.708 83.9438 20.5228 83.9018 20.345 83.8154L14.7904 81.0627L9.2332 83.8179C8.82586 84.0203 8.33458 83.9808 7.95933 83.7092C7.58901 83.4402 7.39645 82.9859 7.46311 82.5317L8.36667 76.3993L4.02908 71.9679C3.70814 71.6395 3.59458 71.1606 3.73776 70.7236C3.88095 70.2867 4.25126 69.9633 4.70551 69.8892L10.8206 68.8474L13.6967 63.3569C13.9115 62.9495 14.3336 62.6953 14.7904 62.6953C15.252 62.6953 15.6692 62.952 15.884 63.3569L18.7576 68.8474L24.8703 69.8892C25.3245 69.9657 25.6948 70.2891 25.838 70.7236C25.9812 71.1581 25.8676 71.6395 25.5467 71.9679L20.7845 76.8362C20.313 77.3251 19.5304 77.3349 19.0391 76.856C18.5527 76.3795 18.5429 75.5994 19.0193 75.1106L22.1349 71.9234L17.743 71.1754C17.3628 71.1112 17.0369 70.8718 16.8567 70.5311L14.7928 66.586L12.7265 70.5311C12.5463 70.8718 12.2179 71.1112 11.8402 71.1754L7.44583 71.9234L10.5639 75.1106C10.833 75.3871 10.9589 75.7722 10.9045 76.1524L10.2553 80.5567L14.2472 78.5792C14.5904 78.4088 15.0002 78.4088 15.3409 78.5792L21.4436 81.6034C22.0559 81.9071 22.3052 82.6452 22.004 83.2575C21.7819 83.692 21.3449 83.9438 20.8931 83.9438Z" fill="#807AF9"/>
<path d="M94 13.5533C93.4937 13.9302 93.2405 14.3071 92.9873 14.4328C91.7215 14.9354 90.4557 15.4379 89.1899 15.9405C87.2911 16.5687 86.1519 17.8252 85.8987 19.8355C85.6456 21.4689 85.3924 23.1023 85.0127 24.7357C84.8861 25.2382 84.5063 25.9921 84.1266 26.1178C83.3671 26.2434 83.3671 25.3639 83.2405 24.8613C82.7342 23.3536 82.2278 21.7202 81.8481 20.2124C81.2152 18.0765 79.8228 16.9457 77.5443 16.9457C76.6582 16.9457 75.8987 16.82 75.0127 16.6944C74.5063 16.6944 74.2532 16.4431 74 16.1918C74.2532 15.9405 74.3797 15.5636 74.6329 15.4379C75.8987 14.9354 77.2911 14.4328 78.557 14.0558C79.8228 13.6789 80.7089 12.7994 80.962 11.5429C81.4684 9.53261 81.8481 7.52229 82.3544 5.63762C82.6076 5.00939 82.3544 4.12988 83.2405 4.12988C84.1266 4.12988 84 4.88375 84.1266 5.38633C84.5063 7.14536 84.8861 8.77874 85.3924 10.5378C86.0253 12.7994 86.5316 13.1763 88.9367 13.1763C90.2025 13.1763 91.5949 13.0507 92.8608 13.0507C92.9873 13.0507 93.3671 13.302 94 13.5533Z" fill="#434087"/>
<path d="M77 4.84156C76.7468 5.03003 76.6203 5.2185 76.4937 5.28132C75.8608 5.53261 75.2278 5.7839 74.5949 6.03519C73.6456 6.3493 73.0759 6.97753 72.9494 7.98269C72.8228 8.79938 72.6962 9.61607 72.5063 10.4328C72.443 10.6841 72.2532 11.061 72.0633 11.1238C71.6835 11.1867 71.6835 10.7469 71.6203 10.4956C71.3671 9.74172 71.1139 8.92502 70.9241 8.17115C70.6076 7.10317 69.9114 6.53777 68.7722 6.53777C68.3291 6.53777 67.9494 6.47495 67.5063 6.41213C67.2532 6.41213 67.1266 6.28648 67 6.16084C67.1266 6.03519 67.1899 5.84672 67.3165 5.7839C67.9494 5.53261 68.6456 5.28132 69.2785 5.09285C69.9114 4.90439 70.3544 4.46463 70.481 3.8364C70.7342 2.83125 70.9241 1.82609 71.1772 0.883752C71.3038 0.56964 71.1772 0.129883 71.6203 0.129883C72.0633 0.129883 72 0.506818 72.0633 0.758108C72.2532 1.63762 72.443 2.45431 72.6962 3.33383C73.0127 4.46463 73.2658 4.6531 74.4684 4.6531C75.1013 4.6531 75.7975 4.59027 76.4304 4.59027C76.4937 4.59027 76.6835 4.71592 77 4.84156Z" fill="#6663A9"/>
</g>
<defs>
<clipPath id="clip0_80_7472">
<rect width="94" height="93" fill="white" transform="translate(0 0.129883)"/>
</clipPath>
</defs>
</svg>
